<?xml version="1.0" encoding="UTF-8" standalone="no"?>
<!-- Created with Inkscape (http://www.inkscape.org/) -->

<svg
   xmlns:dc="http://purl.org/dc/elements/1.1/"
   xmlns:cc="http://creativecommons.org/ns#"
   xmlns:rdf="http://www.w3.org/1999/02/22-rdf-syntax-ns#"
   xmlns:svg="http://www.w3.org/2000/svg"
   xmlns="http://www.w3.org/2000/svg"
   xmlns:sodipodi="http://sodipodi.sourceforge.net/DTD/sodipodi-0.dtd"
   xmlns:inkscape="http://www.inkscape.org/namespaces/inkscape"
   width="415.6875"
   height="401.0625"
   id="svg2"
   version="1.1"
   inkscape:version="0.48.3.1 r9886"
   sodipodi:docname="raulhcpreto.svg"
   inkscape:export-filename="/home/tutz/Documents/raul-hacker-club-cool.png"
   inkscape:export-xdpi="90"
   inkscape:export-ydpi="90">
  <defs
     id="defs4">
    <linearGradient
       id="linearGradient3035">
      <stop
         style="stop-color:#000000;stop-opacity:1;"
         offset="0"
         id="stop3037" />
      <stop
         style="stop-color:#000000;stop-opacity:0;"
         offset="1"
         id="stop3039" />
    </linearGradient>
    <linearGradient
       id="linearGradient3019">
      <stop
         style="stop-color:#b3b3b3;stop-opacity:1;"
         offset="0"
         id="stop3021" />
      <stop
         style="stop-color:#000000;stop-opacity:1;"
         offset="1"
         id="stop3023" />
    </linearGradient>
  </defs>
  <sodipodi:namedview
     id="base"
     pagecolor="#ffffff"
     bordercolor="#666666"
     borderopacity="1.0"
     inkscape:pageopacity="0.0"
     inkscape:pageshadow="2"
     inkscape:zoom="1"
     inkscape:cx="246.70764"
     inkscape:cy="158.79711"
     inkscape:document-units="px"
     inkscape:current-layer="g4181"
     showgrid="false"
     inkscape:window-width="1024"
     inkscape:window-height="681"
     inkscape:window-x="0"
     inkscape:window-y="27"
     inkscape:window-maximized="1"
     fit-margin-top="0"
     fit-margin-left="0"
     fit-margin-right="0"
     fit-margin-bottom="0"
     showguides="true"
     inkscape:guide-bbox="true" />
  <metadata
     id="metadata7">
    <rdf:RDF>
      <cc:Work
         rdf:about="">
        <dc:format>image/svg+xml</dc:format>
        <dc:type
           rdf:resource="http://purl.org/dc/dcmitype/StillImage" />
        <dc:title></dc:title>
      </cc:Work>
    </rdf:RDF>
  </metadata>
  <g
     inkscape:label="Layer 1"
     inkscape:groupmode="layer"
     id="layer1"
     transform="translate(-16.21875,-255.15625)">
    <path
       transform="matrix(2.381384,0,0,-2.381384,754.17543,1445.2995)"
       d="m 160,369.36218 c 0,38.65994 -31.34007,70 -70,70 -38.659932,0 -70,-31.34006 -70,-70 0,-38.65993 31.340068,-70 70,-70 38.65993,0 70,31.34007 70,70 z"
       sodipodi:ry="70"
       sodipodi:rx="70"
       sodipodi:cy="369.36218"
       sodipodi:cx="90"
       id="path3915"
       style="fill:none;stroke:#000000;stroke-width:3.2391305;stroke-linecap:round;stroke-linejoin:round;stroke-miterlimit:4;stroke-opacity:1;stroke-dasharray:none"
       sodipodi:type="arc" />
    <g
       id="g3025"
       transform="translate(-232.22122,1.89444)"
       inkscape:export-filename="/home/n3k00n3/Downloads/raulhcpreto.png"
       inkscape:export-xdpi="90"
       inkscape:export-ydpi="90">
      <path
         transform="matrix(1.5436241,0,0,1.5436241,318.57382,-118.29423)"
         style="fill:none;stroke:#000000;stroke-width:3.2391305;stroke-linecap:round;stroke-linejoin:round;stroke-miterlimit:4;stroke-opacity:1"
         d="m 160,369.36218 c 0,38.65994 -31.34007,70 -70,70 -38.659932,0 -70,-31.34006 -70,-70 0,-38.65993 31.340068,-70 70,-70 38.65993,0 70,31.34007 70,70 z"
         id="path3086"
         inkscape:connector-curvature="0" />
    </g>
    <g
       id="g4181"
       transform="translate(17.180407,-1.4064995)">
      <path
         style="fill:#1a1a1a;stroke:#000000;stroke-width:4.55140352000000004;stroke-linecap:round;stroke-linejoin:round;stroke-miterlimit:4;stroke-opacity:1;stroke-dasharray:none;fill-opacity:1"
         d="M 207.84375 30.34375 C 113.84258 30.34375 37.625 106.53008 37.625 200.53125 C 37.625 294.53242 113.84258 370.75 207.84375 370.75 C 301.84492 370.75 378.03125 294.53242 378.03125 200.53125 C 378.03125 106.53008 301.84492 30.34375 207.84375 30.34375 z M 207.8125 94.03125 C 266.64329 94.03125 314.34375 141.73171 314.34375 200.5625 C 314.34375 259.39329 266.64329 307.0625 207.8125 307.0625 C 148.98171 307.0625 101.3125 259.39329 101.3125 200.5625 C 101.3125 141.73171 148.98171 94.03125 207.8125 94.03125 z "
         id="path3549"
         inkscape:export-filename="/home/n3k00n3/Downloads/raulhcpreto.png"
         inkscape:export-xdpi="90"
         inkscape:export-ydpi="90"
         transform="translate(-0.961657,256.56275)" />
      <g
         transform="matrix(-0.51107318,-1.0183242,1.0183242,-0.51107318,-19.493,1158.4181)"
         inkscape:transform-center-x="28.193855"
         inkscape:transform-center-y="-160.15378"
         style="font-size:54.41569901px;font-style:normal;font-variant:normal;font-weight:bold;font-stretch:normal;line-height:125%;letter-spacing:0px;word-spacing:0px;fill:#ffffff;fill-opacity:1;stroke:none;font-family:Arial;-inkscape-font-specification:Arial Bold"
         id="text3535"
         inkscape:export-filename="/home/n3k00n3/Downloads/raulhcpreto.png"
         inkscape:export-xdpi="90"
         inkscape:export-ydpi="90">
        <path
           d="m 598.75269,467.73232 c -0.23962,1.90768 -0.67256,3.60829 -1.29884,5.10182 -0.62635,1.49349 -1.4595,2.74165 -2.49946,3.74449 -1.04002,1.00279 -2.29807,1.704 -3.77416,2.10364 -1.44465,0.4401 -3.10282,0.54263 -4.97451,0.3076 -1.94372,-0.24413 -3.65771,-0.86157 -5.142,-1.85232 -1.48432,-0.9908 -2.52513,-2.45603 -3.12245,-4.39569 -1.01271,0.49435 -2.13791,1.01115 -3.37561,1.55041 -1.20172,0.54374 -2.47317,1.06046 -3.81433,1.55017 -1.30518,0.49417 -2.62383,0.95012 -3.95596,1.36784 -1.30066,0.45818 -2.53602,0.83319 -3.7061,1.12501 l 0.87471,-6.96491 c 2.26364,-0.55666 4.45536,-1.26858 6.57519,-2.13577 2.15129,-0.8267 4.33189,-1.74111 6.54179,-2.74323 l 0.43397,-3.45546 -12.31008,-1.546 0.83402,-6.64096 32.93487,4.13621 c 0.0626,0.66598 0.1004,1.38369 0.11349,2.15314 0.0445,0.80995 0.035,1.61313 -0.0284,2.40953 -0.0275,0.80091 -0.0684,1.56357 -0.12282,2.28799 -0.0544,0.7244 -0.11555,1.35656 -0.18333,1.89649 m -11.64539,4.51538 c 1.7637,0.22148 3.1273,-0.1557 4.09081,-1.13154 0.96346,-0.97588 1.55595,-2.34567 1.77748,-4.10938 0.0316,-0.25197 0.0521,-0.56018 0.0613,-0.92463 0.0452,-0.35996 0.0544,-0.72442 0.0276,-1.0934 l -10.04243,-1.2612 -0.18308,1.45777 c -0.2848,2.26763 -0.0585,3.95962 0.67876,5.07597 0.77326,1.12083 1.96978,1.78297 3.58955,1.98641"
           style="fill:#ffffff;font-family:Ubuntu Mono;-inkscape-font-specification:Arial Bold"
           id="path3030" />
        <path
           d="m 562.39735,493.53256 c -0.26768,0.67435 -0.52866,1.33185 -0.78296,1.9725 -0.22058,0.65401 -0.39083,1.23043 -0.51078,1.72927 l 5.46231,2.16821 c 0.22804,-0.37787 0.47268,-0.84671 0.73393,-1.40651 0.29496,-0.54645 0.53613,-1.0557 0.72351,-1.52773 0.25429,-0.64066 0.45132,-1.28451 0.59108,-1.93157 0.17347,-0.63371 0.25275,-1.22673 0.23782,-1.77907 -0.0283,-0.51865 -0.17439,-0.98645 -0.43821,-1.40341 -0.26383,-0.41698 -0.69921,-0.74592 -1.30612,-0.98682 -1.07898,-0.42829 -2.0151,-0.33151 -2.80837,0.29035 -0.75955,0.63523 -1.39361,1.59349 -1.90221,2.87478 m 20.14814,7.35359 c -0.77629,1.95562 -1.65475,3.48039 -2.63537,4.57432 -0.96032,1.14098 -2.01587,1.93194 -3.16663,2.37288 -1.11708,0.45427 -2.34945,0.6091 -3.69713,0.46448 -1.31397,-0.13129 -2.71275,-0.49136 -4.19633,-1.08023 l -14.16153,-5.62127 c 0.15906,-0.99071 0.4584,-2.43312 0.898,-4.32722 0.43961,-1.89414 1.10109,-3.95389 1.98442,-6.17926 0.60229,-1.51732 1.2859,-2.84622 2.05085,-3.9867 0.75157,-1.10678 1.6048,-1.97804 2.55971,-2.61379 0.98862,-0.62238 2.06553,-0.97552 3.23073,-1.05943 1.19891,-0.0705 2.5233,0.18195 3.97318,0.75747 1.38243,0.54874 2.43862,1.28023 3.16859,2.19447 0.72995,0.91423 1.20084,1.94031 1.41269,3.07823 0.21183,1.1379 0.20154,2.34376 -0.0309,3.61759 -0.19871,1.28719 -0.55235,2.57142 -1.06093,3.85272 -0.64244,1.61844 -1.34613,2.99792 -2.11108,4.13843 l 0.75866,0.30114 c 1.18011,0.46842 2.30516,0.48566 3.37513,0.0517 1.10366,-0.4206 2.01687,-1.54128 2.73962,-3.36202 0.46842,-1.18015 0.83918,-2.36002 1.11228,-3.53961 0.25968,-1.14591 0.40536,-2.10288 0.43703,-2.87092 l 5.3484,1.12772 c -0.0381,0.88257 -0.23706,2.07209 -0.59686,3.56856 -0.32612,1.50982 -0.79031,3.0234 -1.39257,4.54072"
           style="fill:#ffffff;font-family:Ubuntu Mono;-inkscape-font-specification:Arial Bold"
           id="path3032" />
        <path
           d="m 539.53028,524.25162 c 0.46301,-1.18896 1.08632,-2.59772 1.86994,-4.22629 0.76227,-1.59929 1.75262,-3.23428 2.97104,-4.90495 1.23982,-1.70001 2.48967,-2.92124 3.74954,-3.66369 1.25988,-0.74247 2.54996,-1.12617 3.87023,-1.15108 1.32821,0.0258 2.66402,0.34892 4.00744,0.96949 1.34342,0.62055 2.71857,1.44386 4.12547,2.46992 l 11.51895,8.40079 -3.94388,5.40775 -10.8155,-7.88777 c -1.90518,-1.38946 -3.48704,-2.20637 -4.74561,-2.45073 -1.25064,-0.19371 -2.35692,0.36893 -3.31884,1.6879 -0.59853,0.82068 -1.12378,1.6948 -1.57577,2.62239 l 16.22326,11.83165 -3.97595,5.45172 -19.96032,-14.5571"
           style="fill:#ffffff;font-family:Ubuntu Mono;-inkscape-font-specification:Arial Bold"
           id="path3034" />
        <path
           d="m 517.83571,543.58425 c 0.0378,-0.12525 0.15276,-0.38483 0.34501,-0.77873 0.1643,-0.37085 0.41496,-0.83649 0.75197,-1.39695 0.36014,-0.5325 0.84371,-1.14338 1.45072,-1.83264 0.57907,-0.66619 1.30222,-1.35724 2.16947,-2.07317 2.37798,-1.96306 4.68987,-2.69552 6.93566,-2.1974 2.26891,0.52608 4.52345,2.14597 6.76363,4.85967 l 13.82217,16.74373 5.45535,-4.50346 3.53349,4.28035 -10.61695,8.76444 -17.66744,-21.40177 c -1.10854,-1.34287 -2.12489,-2.03269 -3.04905,-2.06947 -0.92415,-0.0368 -1.79188,0.27966 -2.6032,0.94942 -1.03511,0.85449 -1.78689,1.7103 -2.25536,2.56745 -0.46845,0.85711 -0.77994,1.42002 -0.93448,1.68872 l -4.10099,-3.60019"
           style="fill:#ffffff;font-family:Ubuntu Mono;-inkscape-font-specification:Arial Bold"
           id="path3036" />
      </g>
      <g
         transform="matrix(-0.96461787,0.26365195,-0.26365195,-0.96461787,1294.2227,732.77871)"
         inkscape:transform-center-x="92.029167"
         inkscape:transform-center-y="97.546732"
         style="font-size:36px;font-style:normal;font-variant:normal;font-weight:bold;font-stretch:normal;line-height:125%;letter-spacing:6.25px;word-spacing:0px;fill:#ffffff;fill-opacity:1;stroke:none;font-family:Arial;-inkscape-font-specification:Arial Bold"
         id="text3539"
         inkscape:export-filename="/home/n3k00n3/Downloads/raulhcpreto.png"
         inkscape:export-xdpi="90"
         inkscape:export-ydpi="90">
        <path
           d="m 1095.1043,541.09787 38.2157,-3.5263 0.7007,7.59374 -16.8544,1.55522 0.9342,10.12498 16.8544,-1.55522 0.7007,7.59374 -38.2156,3.52631 -0.7007,-7.59374 15.064,-1.39002 -0.9343,-10.12498 -15.064,1.39001 -0.7007,-7.59374"
           style="font-size:62px;line-height:125%;fill:#ffffff;font-family:Ubuntu Mono;-inkscape-font-specification:Arial Bold"
           id="path3039" />
        <path
           d="m 1121.7605,515.46284 c -0.2571,-0.78566 -0.5077,-1.5517 -0.752,-2.29812 -0.2834,-0.73353 -0.5544,-1.36243 -0.813,-1.88672 l -6.364,2.0822 c 0.076,0.49713 0.2031,1.08603 0.3823,1.7667 0.14,0.69355 0.2999,1.31531 0.4799,1.86527 0.2442,0.74641 0.5409,1.45389 0.8901,2.12243 0.3099,0.68142 0.6727,1.25855 1.0883,1.7314 0.4029,0.43358 0.8717,0.73682 1.4067,0.9097 0.5349,0.17289 1.156,0.14366 1.8631,-0.0877 1.2571,-0.4113 2.0064,-1.17833 2.2479,-2.3011 0.2022,-1.1099 0.059,-2.41125 -0.4293,-3.90406 m -23.0049,8.24439 c -0.7454,-2.27848 -1.0874,-4.25408 -1.0259,-5.92683 0.01,-1.69916 0.3574,-3.16118 1.0439,-4.38605 0.6472,-1.212 1.6137,-2.24578 2.8993,-3.10135 1.2465,-0.84268 2.7339,-1.5468 4.4624,-2.11235 l 16.4993,-5.39831 c 0.5828,0.98357 1.3719,2.46496 2.3674,4.44417 0.9955,1.97926 1.9174,4.26525 2.7657,6.85798 0.5784,1.7678 0.9482,3.42986 1.1095,4.98618 0.1484,1.51707 0.036,2.90196 -0.3368,4.1547 -0.4122,1.2656 -1.0979,2.35976 -2.0572,3.28247 -0.9986,0.93557 -2.3425,1.6797 -4.0317,2.23238 -1.6107,0.52698 -3.0688,0.65614 -4.3744,0.38748 -1.3056,-0.26866 -2.4658,-0.82407 -3.4807,-1.66624 -1.0148,-0.84216 -1.8847,-1.90573 -2.6096,-3.19071 -0.7641,-1.27211 -1.3904,-2.65457 -1.8788,-4.14737 -0.6169,-1.88563 -1.006,-3.60661 -1.1674,-5.16296 l -0.8839,0.28919 c -1.3749,0.44987 -2.3727,1.25474 -2.9935,2.4146 -0.66,1.17274 -0.643,2.81977 0.051,4.9411 0.4499,1.37495 0.9851,2.67848 1.6057,3.91058 0.6077,1.19283 1.1776,2.1371 1.7096,2.83281 l -5.5059,2.91043 c -0.6099,-0.80071 -1.3026,-1.98747 -2.0782,-3.56028 -0.8148,-1.55996 -1.5114,-3.22384 -2.0898,-4.99162"
           style="font-size:62px;line-height:125%;fill:#ffffff;font-family:Ubuntu Mono;-inkscape-font-specification:Arial Bold"
           id="path3041" />
        <path
           d="m 1105.5981,498.46586 c -1.8073,1.08504 -3.6785,1.82276 -5.6136,2.21317 -1.9351,0.39039 -3.8384,0.35192 -5.7099,-0.11541 -1.9069,-0.44607 -3.7289,-1.35291 -5.4661,-2.72054 -1.7937,-1.38179 -3.4353,-3.31299 -4.9246,-5.79359 -0.8935,-1.48837 -1.5957,-2.89881 -2.1064,-4.23133 -0.5107,-1.33251 -0.8904,-2.76785 -1.1389,-4.30602 l 6.1241,-1.7242 c 0.1774,0.85769 0.4435,1.78268 0.7982,2.77497 0.298,0.97816 0.8512,2.14054 1.6597,3.48715 0.9361,1.55924 1.9182,2.7534 2.9463,3.58249 0.9713,0.81493 1.9852,1.33921 3.0414,1.57284 1.0208,0.25491 2.077,0.24754 3.1686,-0.0221 1.0916,-0.26966 2.1689,-0.72362 3.232,-1.36189 2.3035,-1.3829 3.7278,-3.10582 4.2731,-5.16876 0.524,-2.09836 -0.1502,-4.70678 -2.0224,-7.82527 -0.617,-1.02766 -1.3261,-2.04823 -2.1274,-3.0617 -0.8226,-1.04887 -1.6699,-1.93826 -2.542,-2.66817 l 4.7943,-4.18004 c 0.9075,0.70864 1.8612,1.65471 2.861,2.83821 1.0353,1.16227 2.0848,2.62933 3.1485,4.40117 1.5319,2.5515 2.5143,4.95072 2.9473,7.19768 0.4118,2.21154 0.384,4.25307 -0.083,6.12458 -0.4673,1.87152 -1.3281,3.56948 -2.5824,5.09387 -1.2755,1.48895 -2.8347,2.78659 -4.6774,3.89292"
           style="font-size:62px;line-height:125%;fill:#ffffff;font-family:Ubuntu Mono;-inkscape-font-specification:Arial Bold"
           id="path3043" />
        <path
           d="m 1078.9326,465.4684 c -1.1415,0.0626 -2.3128,0.1537 -3.5141,0.27343 -1.2596,0.11843 -2.5057,0.28101 -3.7381,0.48775 -1.2609,0.17687 -2.4635,0.35503 -3.6076,0.53449 -1.1739,0.20802 -2.2459,0.4329 -3.216,0.67465 l -6.344,-6.62967 c 1.2013,-0.11972 2.5337,-0.22193 3.9972,-0.30665 1.4637,-0.0847 2.9707,-0.15384 4.5213,-0.2074 1.522,-0.0834 3.0285,-0.12334 4.5193,-0.11975 1.4623,-0.0263 2.8077,-0.0551 4.0362,-0.0865 0,-1.43242 0.097,-3.06745 0.2834,-4.9051 0.1568,-1.80905 0.3727,-3.64605 0.6476,-5.51099 0.275,-1.86492 0.6213,-3.65519 1.0391,-5.37083 0.3893,-1.74546 0.802,-3.22731 1.2381,-4.44556 l 6.0439,6.31611 c -0.4036,1.07279 -0.7826,2.35074 -1.1368,3.83387 -0.4127,1.48187 -0.7526,2.97994 -1.0199,4.49422 -0.297,1.54288 -0.5201,3.04353 -0.6692,4.50195 -0.2074,1.45714 -0.3085,2.7266 -0.3031,3.80838 l 9.9445,-9.516 5.3153,5.55459 -30.1471,28.84807 -6.256,-4.65443 18.366,-17.5746"
           style="font-size:62px;line-height:125%;fill:#ffffff;font-family:Ubuntu Mono;-inkscape-font-specification:Arial Bold"
           id="path3045" />
        <path
           d="m 1063.846,446.0684 c -1.415,2.13657 -2.9862,3.79788 -4.7136,4.98393 -1.7275,1.18602 -3.4791,1.95943 -5.2549,2.32024 -1.7986,0.39523 -3.5697,0.41208 -5.3133,0.0506 -1.7436,-0.36156 -3.3391,-1.0216 -4.7865,-1.98014 -3.5839,-2.37359 -5.5988,-5.24488 -6.0447,-8.61388 -0.4687,-3.33456 0.6435,-7.03504 3.3365,-11.10144 0.2739,-0.41353 0.5765,-0.83288 0.9076,-1.25806 0.2967,-0.44799 0.5536,-0.79842 0.7706,-1.05129 l 15.7659,10.44143 c 1.0499,-1.58521 1.2282,-3.27667 0.5348,-5.07438 -0.7161,-1.76326 -2.108,-3.32956 -4.1756,-4.69894 -1.2751,-0.84443 -2.5725,-1.50539 -3.8923,-1.98286 -1.3543,-0.50028 -2.519,-0.87504 -3.4942,-1.12428 l 2.7158,-6.0096 c 1.3539,0.35127 2.7309,0.8171 4.1313,1.39748 1.4232,0.54594 2.9101,1.33242 4.4609,2.35944 2.0677,1.36937 3.7574,2.86026 5.0692,4.47266 1.2545,1.62405 2.1252,3.34098 2.6122,5.15078 0.4297,1.82145 0.4412,3.71295 0.034,5.67451 -0.4067,1.96155 -1.2948,3.97616 -2.6642,6.04383 m -17.9603,-8.25088 c -0.4336,0.65476 -0.7583,1.33211 -0.974,2.03207 -0.2384,0.7344 -0.3279,1.46836 -0.2684,2.20187 0.06,0.7335 0.291,1.43209 0.6942,2.09578 0.3805,0.69812 1.0015,1.33248 1.863,1.90306 0.827,0.54773 1.642,0.88917 2.4449,1.0243 0.7684,0.11229 1.5192,0.0642 2.2522,-0.14442 0.6986,-0.23142 1.3739,-0.57739 2.0259,-1.03792 0.6176,-0.48337 1.1777,-1.02961 1.6802,-1.63871 l -9.718,-6.43603"
           style="font-size:62px;line-height:125%;fill:#ffffff;font-family:Ubuntu Mono;-inkscape-font-specification:Arial Bold"
           id="path3047" />
        <path
           d="m 1008.9458,425.61245 c 0.4203,0.29111 0.9373,0.61872 1.5509,0.98281 0.575,0.34948 1.1766,0.68693 1.8048,1.01235 0.6137,0.36407 1.2226,0.68218 1.8267,0.95434 0.6042,0.27214 1.119,0.48847 1.5444,0.64899 1.0055,0.37938 2.0135,0.69348 3.024,0.94228 0.996,0.28744 2.0478,0.48552 3.1554,0.59423 l 7.639,-20.24473 7.193,2.71414 -9.6089,25.46543 c -2.1576,-0.0189 -4.3028,-0.18781 -6.4356,-0.5066 -2.1714,-0.33342 -4.5913,-1.00355 -7.2597,-2.01039 -0.3867,-0.14594 -0.9208,-0.36956 -1.6023,-0.67087 -0.7202,-0.31595 -1.4644,-0.68513 -2.2328,-1.10756 -0.7829,-0.3838 -1.5512,-0.80625 -2.305,-1.26736 -0.807,-0.43706 -1.4954,-0.89563 -2.0653,-1.37571 l 3.7714,-6.13135"
           style="font-size:62px;line-height:125%;fill:#ffffff;font-family:Ubuntu Mono;-inkscape-font-specification:Arial Bold"
           id="path3049" />
      </g>
      <g
         transform="matrix(0.42939421,0.90311716,-0.90311716,0.42939421,279.05066,-654.19031)"
         inkscape:transform-center-x="-65.634981"
         inkscape:transform-center-y="50.35656"
         style="font-size:62px;font-style:normal;font-variant:normal;font-weight:bold;font-stretch:normal;line-height:125%;letter-spacing:4.69999981px;word-spacing:0px;fill:#ffffff;fill-opacity:1;stroke:none;font-family:Arial;-inkscape-font-specification:Arial Bold"
         id="text3543"
         inkscape:export-filename="/home/n3k00n3/Downloads/raulhcpreto.png"
         inkscape:export-xdpi="90"
         inkscape:export-ydpi="90">
        <path
           d="m 1135.0283,547.31381 c 0.4976,5.39177 -0.8513,9.66712 -4.0466,12.82607 -3.1952,3.15896 -7.9826,5.03277 -14.3622,5.62143 -3.1692,0.29244 -6.0284,0.12043 -8.5777,-0.51603 -2.5493,-0.63646 -4.7379,-1.63826 -6.5659,-3.00541 -1.873,-1.40451 -3.3385,-3.11643 -4.3965,-5.13576 -1.103,-2.05668 -1.7703,-4.34036 -2.002,-6.85104 -0.1253,-1.35821 -0.1138,-2.58378 0.034,-3.6767 0.1033,-1.13025 0.261,-2.12026 0.4731,-2.97004 0.2122,-0.84973 0.4582,-1.55733 0.7381,-2.1228 0.2761,-0.60657 0.4832,-1.06152 0.6212,-1.36485 l 6.2326,1.41732 c -0.53,1.00364 -0.9381,2.20355 -1.2244,3.59974 -0.3312,1.35886 -0.417,2.90261 -0.2576,4.63125 0.1102,1.19361 0.4448,2.34574 1.0039,3.45639 0.5141,1.07331 1.3274,2.01523 2.4399,2.82576 1.0676,0.77319 2.4717,1.37003 4.2124,1.79053 1.7369,0.37936 3.8606,0.45319 6.3713,0.22152 4.3628,-0.40257 7.6488,-1.45294 9.8581,-3.15113 2.1644,-1.73554 3.089,-4.31138 2.7737,-7.72755 -0.1823,-1.97559 -0.5586,-3.58046 -1.1291,-4.81462 -0.5743,-1.27527 -1.1239,-2.28303 -1.6488,-3.02329 l 5.812,-2.46646 c 0.7573,1.00938 1.5095,2.41354 2.2566,4.21248 0.7021,1.76162 1.1634,3.83602 1.3836,6.22319"
           style="font-size:62px;font-style:normal;font-variant:normal;font-weight:bold;font-stretch:normal;letter-spacing:4.69999981px;fill:#ffffff;font-family:Ubuntu Mono;-inkscape-font-specification:Arial Bold"
           id="path3052" />
        <path
           d="m 1122.1945,502.84948 c 0.1163,0.0933 0.3416,0.32539 0.6759,0.69637 0.3219,0.33164 0.7072,0.79491 1.1558,1.38982 0.4093,0.60745 0.8488,1.37873 1.3185,2.31384 0.4572,0.89575 0.8794,1.95435 1.2664,3.17582 1.0612,3.34925 0.8501,6.10434 -0.6331,8.26526 -1.5226,2.17343 -4.195,3.86564 -8.0171,5.07664 l -23.5825,7.47202 2.4345,7.68355 -6.0287,1.91014 -4.7379,-14.95336 30.1432,-9.55071 c 1.8913,-0.59924 3.0533,-1.37932 3.4859,-2.34022 0.4327,-0.96088 0.468,-2.01266 0.1059,-3.15536 -0.4619,-1.45788 -1.046,-2.61694 -1.7521,-3.47719 -0.7061,-0.8602 -1.1682,-1.4292 -1.3863,-1.70699 l 5.5516,-2.79963"
           style="font-size:62px;font-style:normal;font-variant:normal;font-weight:bold;font-stretch:normal;letter-spacing:4.69999981px;fill:#ffffff;font-family:Ubuntu Mono;-inkscape-font-specification:Arial Bold"
           id="path3054" />
        <path
           d="m 1106.414,473.08001 c 1.0233,1.03263 2.2012,2.33394 3.5336,3.90394 1.3118,1.5342 2.5552,3.32236 3.7301,5.36449 1.1955,2.07798 1.888,3.94466 2.0774,5.60005 0.1894,1.6554 -0.01,3.17608 -0.5941,4.56202 -0.642,1.37074 -1.5971,2.61167 -2.8652,3.72277 -1.2682,1.11111 -2.7622,2.16136 -4.4819,3.15075 l -14.08,8.10063 -3.803,-6.61009 13.2202,-7.60594 c 2.3288,-1.33979 3.9118,-2.60819 4.7491,-3.80519 0.7808,-1.21221 0.7075,-2.62442 -0.2201,-4.23665 -0.5771,-1.00315 -1.2438,-1.95477 -2.0001,-2.85488 l -19.8303,11.40891 -3.8339,-6.66383 24.3982,-14.03698"
           style="font-size:62px;font-style:normal;font-variant:normal;font-weight:bold;font-stretch:normal;letter-spacing:4.69999981px;fill:#ffffff;font-family:Ubuntu Mono;-inkscape-font-specification:Arial Bold"
           id="path3056" />
        <path
           d="m 1077.2291,459.41186 c -2.0225,1.83068 -3.2649,3.56851 -3.7272,5.21349 -0.4901,1.61434 -0.1249,3.09569 1.0955,4.44405 0.5548,0.61288 1.2015,1.14255 1.9401,1.58902 0.6802,0.44355 1.3371,0.76889 1.9705,0.97602 l 11.7215,-10.60957 c -0.2964,-0.51223 -0.6373,-1.01205 -1.0227,-1.49946 -0.4131,-0.51804 -0.7723,-0.94561 -1.0774,-1.2827 -1.3314,-1.47092 -2.8757,-2.19161 -4.633,-2.16206 -1.7879,0.0573 -3.877,1.1677 -6.2673,3.33121 m -5.0628,-5.87064 c 1.7161,-1.55328 3.487,-2.73806 5.3127,-3.55433 1.795,-0.7885 3.5851,-1.18221 5.3701,-1.18114 1.785,0.001 3.5358,0.39554 5.2523,1.18332 1.686,0.81554 3.2778,2.0507 4.7756,3.70549 1.3315,1.47094 2.5833,3.06959 3.7557,4.79597 1.1723,1.72638 2.0615,3.26308 2.6675,4.6101 l -30.292,27.41846 -6.0828,-4.78016 10.8021,-9.77745 c -1.0889,-0.46392 -2.0275,-1.00813 -2.8158,-1.63263 -0.8189,-0.59679 -1.5612,-1.26291 -2.2269,-1.99837 -1.2759,-1.40964 -2.1234,-2.90038 -2.5427,-4.4722 -0.4498,-1.54409 -0.4881,-3.12621 -0.1148,-4.74637 0.3149,-1.62306 0.9955,-3.24255 2.0416,-4.85847 1.0462,-1.61591 2.412,-3.18665 4.0974,-4.71222"
           style="font-size:62px;font-style:normal;font-variant:normal;font-weight:bold;font-stretch:normal;letter-spacing:4.69999981px;fill:#ffffff;font-family:Ubuntu Mono;-inkscape-font-specification:Arial Bold"
           id="path3058" />
        <path
           d="m 1068.2267,449.70046 c -1.4933,2.08259 -3.1251,3.68446 -4.8953,4.8056 -1.7702,1.12111 -3.5494,1.82899 -5.3373,2.12365 -1.8121,0.32822 -3.5826,0.27935 -5.3116,-0.14661 -1.729,-0.426 -3.2989,-1.14479 -4.7097,-2.15638 -3.4934,-2.50493 -5.4004,-5.449 -5.721,-8.83223 -0.3446,-3.34966 0.9041,-7.00632 3.7462,-10.97 0.2891,-0.40308 0.607,-0.81092 0.9536,-1.22351 0.3132,-0.43667 0.5829,-0.77733 0.8091,-1.02197 l 15.3677,11.01922 c 1.1079,-1.54516 1.3488,-3.22884 0.7227,-5.05104 -0.6502,-1.78861 -1.983,-3.40549 -3.9985,-4.85064 -1.2428,-0.89116 -2.5148,-1.5998 -3.816,-2.12591 -1.3347,-0.55019 -2.4847,-0.96791 -3.45,-1.25316 l 2.9369,-5.90469 c 1.3399,0.40126 2.6987,0.91786 4.0766,1.5498 1.4019,0.59838 2.8587,1.43949 4.3702,2.52333 2.0155,1.44516 3.6487,2.99771 4.8998,4.65768 1.1934,1.66948 1.9998,3.41753 2.4193,5.24416 0.3618,1.83614 0.3031,3.72676 -0.1761,5.67188 -0.4792,1.94511 -1.4414,3.92538 -2.8866,5.94082 m -17.6418,-8.91162 c -0.4576,0.63822 -0.8071,1.30306 -1.0487,1.99453 -0.2655,0.72506 -0.3822,1.45519 -0.3499,2.1904 0.032,0.73521 0.2376,1.4419 0.6159,2.12009 0.3543,0.71177 0.9514,1.36872 1.7911,1.97088 0.8062,0.57804 1.6079,0.94948 2.4052,1.11431 0.7638,0.14072 1.5158,0.12047 2.256,-0.0608 0.7068,-0.20533 1.3944,-0.52601 2.0631,-0.96202 0.6351,-0.46013 1.215,-0.98521 1.7398,-1.57525 l -9.4725,-6.79218"
           style="font-size:62px;font-style:normal;font-variant:normal;font-weight:bold;font-stretch:normal;letter-spacing:4.69999981px;fill:#ffffff;font-family:Ubuntu Mono;-inkscape-font-specification:Arial Bold"
           id="path3060" />
      </g>
      <path
         inkscape:export-ydpi="90"
         inkscape:export-xdpi="90"
         inkscape:export-filename="/home/n3k00n3/Downloads/raulhcpreto.png"
         sodipodi:type="arc"
         style="fill:#ffffff;stroke:none"
         id="path3553"
         sodipodi:cx="90"
         sodipodi:cy="369.36218"
         sodipodi:rx="70"
         sodipodi:ry="70"
         d="m 160,369.36218 c 0,38.65994 -31.34007,70 -70,70 -38.659932,0 -70,-31.34006 -70,-70 0,-38.65993 31.340068,-70 70,-70 38.65993,0 70,31.34007 70,70 z"
         transform="matrix(0.12339401,0,0,0.12339401,324.7856,363.51848)" />
      <g
         id="g3236"
         transform="translate(-0.38042606,0)"
         inkscape:export-filename="/home/n3k00n3/Downloads/raulhcpreto.png"
         inkscape:export-xdpi="90"
         inkscape:export-ydpi="90"
         style="fill:#000000">
        <g
           transform="translate(-250.40252,25.2334)"
           id="g3499"
           style="fill:#000000">
          <text
             inkscape:export-ydpi="90"
             inkscape:export-xdpi="90"
             inkscape:export-filename="/home/tutz/raul-hacker-club.png"
             transform="scale(1.0625746,0.94111039)"
             xml:space="preserve"
             style="font-size:33.87997436999999934px;font-style:normal;font-variant:normal;font-weight:bold;font-stretch:normal;line-height:125%;letter-spacing:0px;word-spacing:0px;fill:#000000;fill-opacity:1;stroke:none;font-family:Dingbats;-inkscape-font-specification:Dingbats Bold"
             x="394.56055"
             y="531.93793"
             id="text3501"
             sodipodi:linespacing="125%"><tspan
               sodipodi:role="line"
               id="tspan3503"
               x="394.56055"
               y="531.93793"
               style="font-style:normal;font-variant:normal;font-weight:bold;font-stretch:normal;font-family:Dingbats;-inkscape-font-specification:Dingbats Bold;fill:#000000">1</tspan></text>
          <text
             inkscape:export-ydpi="90"
             inkscape:export-xdpi="90"
             inkscape:export-filename="/home/tutz/raul-hacker-club.png"
             xml:space="preserve"
             style="font-size:36px;font-style:normal;font-variant:normal;font-weight:bold;font-stretch:normal;line-height:125%;letter-spacing:0px;word-spacing:0px;fill:#000000;fill-opacity:1;stroke:none;font-family:Dingbats;-inkscape-font-specification:Dingbats Bold"
             x="394.25"
             y="498.48718"
             id="text3509"
             sodipodi:linespacing="125%"><tspan
               sodipodi:role="line"
               id="tspan3511"
               x="394.25"
               y="498.48718"
               style="font-style:normal;font-variant:normal;font-weight:bold;font-stretch:normal;font-family:Dingbats;-inkscape-font-specification:Dingbats Bold;fill:#000000">0</tspan></text>
          <g
             id="g3043"
             style="fill:#000000">
            <text
               xml:space="preserve"
               style="font-size:36px;font-style:normal;font-variant:normal;font-weight:bold;font-stretch:normal;line-height:125%;letter-spacing:0px;word-spacing:0px;fill:#000000;fill-opacity:1;stroke:none;font-family:Dingbats;-inkscape-font-specification:Dingbats Bold"
               x="-472.13086"
               y="-503.11804"
               id="text3505"
               sodipodi:linespacing="125%"
               transform="scale(-1,-1)"
               inkscape:export-filename="/home/tutz/raul-hacker-club.png"
               inkscape:export-xdpi="90"
               inkscape:export-ydpi="90"><tspan
                 sodipodi:role="line"
                 id="tspan3507"
                 x="-472.13086"
                 y="-503.11804"
                 style="font-style:normal;font-variant:normal;font-weight:bold;font-stretch:normal;font-family:Dingbats;-inkscape-font-specification:Dingbats Bold;fill:#000000">1</tspan></text>
            <text
               sodipodi:linespacing="125%"
               id="text3513"
               y="570.20319"
               x="393.80634"
               style="font-size:31.78705787999999899px;font-style:normal;font-variant:normal;font-weight:bold;font-stretch:normal;line-height:125%;letter-spacing:0px;word-spacing:0px;fill:#000000;fill-opacity:1;stroke:none;font-family:Dingbats;-inkscape-font-specification:Dingbats Bold"
               xml:space="preserve"
               transform="scale(1.1325364,0.88297383)"
               inkscape:export-filename="/home/tutz/raul-hacker-club.png"
               inkscape:export-xdpi="90"
               inkscape:export-ydpi="90"><tspan
                 style="font-style:normal;font-variant:normal;font-weight:bold;font-stretch:normal;font-family:Dingbats;-inkscape-font-specification:Dingbats Bold;fill:#000000"
                 y="570.20319"
                 x="393.80634"
                 id="tspan3515"
                 sodipodi:role="line">0</tspan></text>
          </g>
          <text
             inkscape:export-ydpi="90"
             inkscape:export-xdpi="90"
             inkscape:export-filename="/home/tutz/raul-hacker-club.png"
             transform="scale(1.0388818,0.96257342)"
             sodipodi:linespacing="125%"
             id="text3517"
             y="548.42517"
             x="404.52148"
             style="font-size:34.65264511000000169px;font-style:normal;font-variant:normal;font-weight:bold;font-stretch:normal;line-height:125%;letter-spacing:0px;word-spacing:0px;fill:#000000;fill-opacity:1;stroke:none;font-family:Dingbats;-inkscape-font-specification:Dingbats Bold"
             xml:space="preserve"><tspan
               style="font-style:normal;font-variant:normal;font-weight:bold;font-stretch:normal;font-family:Dingbats;-inkscape-font-specification:Dingbats Bold;fill:#000000"
               y="548.42517"
               x="404.52148"
               id="tspan3519"
               sodipodi:role="line">0</tspan></text>
          <text
             sodipodi:linespacing="125%"
             id="text3525"
             y="531.93793"
             x="443.26294"
             style="font-size:33.87997436999999934px;font-style:normal;font-variant:normal;font-weight:bold;font-stretch:normal;line-height:125%;letter-spacing:0px;word-spacing:0px;fill:#000000;fill-opacity:1;stroke:none;font-family:Dingbats;-inkscape-font-specification:Dingbats Bold"
             xml:space="preserve"
             transform="scale(1.0625746,0.94111039)"
             inkscape:export-filename="/home/tutz/raul-hacker-club.png"
             inkscape:export-xdpi="90"
             inkscape:export-ydpi="90"><tspan
               style="font-style:normal;font-variant:normal;font-weight:bold;font-stretch:normal;font-family:Dingbats;-inkscape-font-specification:Dingbats Bold;fill:#000000"
               y="531.93793"
               x="443.26294"
               id="tspan3527"
               sodipodi:role="line">1</tspan></text>
          <text
             xml:space="preserve"
             style="font-size:34.65264511000000169px;font-style:normal;font-variant:normal;font-weight:bold;font-stretch:normal;line-height:125%;letter-spacing:0px;word-spacing:0px;fill:#000000;fill-opacity:1;stroke:none;font-family:Dingbats;-inkscape-font-specification:Dingbats Bold"
             x="453.3721"
             y="548.42517"
             id="text3529"
             sodipodi:linespacing="125%"
             transform="scale(1.0388818,0.96257342)"
             inkscape:export-filename="/home/tutz/raul-hacker-club.png"
             inkscape:export-xdpi="90"
             inkscape:export-ydpi="90"><tspan
               sodipodi:role="line"
               id="tspan3531"
               x="453.3721"
               y="548.42517"
               style="font-style:normal;font-variant:normal;font-weight:bold;font-stretch:normal;font-family:Dingbats;-inkscape-font-specification:Dingbats Bold;fill:#000000">0</tspan></text>
          <text
             sodipodi:linespacing="125%"
             id="text3164"
             y="498.48718"
             x="496"
             style="font-size:36px;font-style:normal;font-variant:normal;font-weight:bold;font-stretch:normal;line-height:125%;letter-spacing:0px;word-spacing:0px;fill:#000000;fill-opacity:1;stroke:none;font-family:Dingbats;-inkscape-font-specification:Dingbats Bold"
             xml:space="preserve"
             inkscape:export-filename="/home/tutz/raul-hacker-club.png"
             inkscape:export-xdpi="90"
             inkscape:export-ydpi="90"><tspan
               style="font-style:normal;font-variant:normal;font-weight:bold;font-stretch:normal;font-family:Dingbats;-inkscape-font-specification:Dingbats Bold;fill:#000000"
               y="498.48718"
               x="496"
               id="tspan3166"
               sodipodi:role="line">0</tspan></text>
        </g>
        <g
           id="g3489"
           transform="matrix(1.4110236,0,0,1.4110236,57.73136,-392.92028)"
           style="fill:#000000">
          <path
             style="fill:#000000"
             d="m 93.54336,615.07918 c -7.383903,-5.1308 -8.80742,-8.23187 -10.93132,-9.5523 -1.423828,-0.88519 -3.00482,-2.08441 -3.32816,-3 -0.32333,-0.91558 -1.18373,-2.36325 -1.91199,-3.21704 -0.72826,-0.85379 -1.46248,-2.45901 -1.63159,-3.56715 -0.16912,-1.10815 -1.30487,-3.28278 -2.52389,-4.83252 -1.45079,-1.84438 -2.22865,-4.23921 -2.25185,-6.93285 -0.0195,-2.26333 -0.67854,-5.24014 -1.46456,-6.61514 -1.99998,-3.4986 -1.8307,-5.94539 0.44451,-9.67678 1.61246,-2.64447 1.75049,-3.67101 0.82371,-6.12631 -0.84807,-2.2468 -0.80505,-3.69378 0.18055,-6.07323 0.71163,-1.71802 1.68928,-3.12368 2.17255,-3.12368 0.48327,0 0.87868,-0.92235 0.87868,-2.04966 0,-4.78432 4.89366,-7.95034 9.42573,-7.95034 0.7324,0 1.89961,-1.37122 2.5938,-3.04716 1.343,-3.24229 6.00751,-2.87158 8.7976,-2.3289 0.98305,0.19121 2.51457,1.1048 3.68287,-0.61251 3.96449,-5.82747 12.03558,-5.53404 14.71312,0.53492 1.08521,2.45974 1.70641,0.82497 3.96389,0.33053 3.9352,-0.86189 8.45279,-1.54264 9.95568,2.61354 0.78382,2.16759 1.92928,3.50958 2.99562,3.50958 2.27527,0 5.87169,2.65481 5.87169,5.59968 0,1.28147 0.85267,2.78629 1.89482,3.34403 2.62947,1.40725 4.26681,6.50097 3.08709,9.60388 -0.72023,1.89435 -0.47808,3.23059 1.03524,5.71258 2.23499,3.66564 2.50629,5.30775 0.851,9.42473 -0.62251,1.54831 -1.04282,4.65778 -0.93401,6.90995 0.15086,3.12257 -0.41144,4.81893 -2.36815,7.14436 -1.4113,1.67723 -2.56599,3.94194 -2.56599,5.0327 0,1.09076 -0.675,2.5434 -1.5,3.22809 -0.825,0.68469 -1.5,1.85442 -1.5,2.59939 0,1.6055 -4.54136,4.8021 -5.75587,4.05149 -0.46411,-0.28683 -1.33234,0.26071 -1.9294,1.21677 -0.93138,1.49138 -5.74562,6.94951 -11.07511,10.43293 -11.47466,7.49998 -8.23738,6.76849 -21.69626,-2.58358 z m 18.75468,1.87669 c 6.31333,-4.13406 9.59044,-7.08317 12.49906,-11.24806 1.95165,-2.7946 2.1967,-4.39136 2.14852,-14 l -0.0544,-10.84563 -6.97409,1 -0.22409,4.25 -5.83494,-3.43994 c -4.54643,-2.68032 -3.30558,5.89303 -5.53762,2 -2.74845,-4.79375 -3.45799,-3.17189 -5.81374,0.0195 -2.876865,3.89742 0.56045,-1.92843 -4.86631,-1.69785 -3.92904,0.16694 -2.644282,0.46259 -5,1.44223 -3.901815,1.6226 -2.14043,0.3321 -2.14043,-1.72979 0,-2.06189 -5.11944,-1.95449 -5.57098,-2.23356 -0.45154,-0.27906 -0.53903,5.65575 -0.5,11.35514 0.0674,9.84588 0.22065,10.57547 3.07303,14.63362 2.92155,4.15658 15.6928,13.84731 18.29599,13.88287 0.71392,0.01 3.63892,-1.51511 6.5,-3.38858 z M 121.5,579.38228 c 4.4,-0.40298 6.24516,-1.04736 5.32258,-1.12639 -0.92258,-0.079 -3.58525,-4.04783 -4.69482,-5.45842 -1.66835,-2.12096 -2.36162,-2.3805 -4.00684,-1.5 -3.49036,1.86798 -7.12415,1.21533 -10.16522,-1.82575 -2.51684,-2.51683 -2.96179,-2.66571 -3.4423,-1.15175 -1.26653,3.99048 -9.27499,5.28062 -12.53608,2.0195 -1.8913,-1.8913 -2.06337,-1.90754 -2.64901,-0.25 -0.34449,0.97497 -1.53772,2.78518 -2.65164,4.02268 l -2.0253,4 6.92432,0.86832 c 3.779328,0.47393 8.52431,-0.0247 10.17431,0.41172 1.65,0.43637 7.825,0.30251 9.75,0.008 1.925,-0.29443 5.6,0.38497 10,-0.018 z"
             id="path3491"
             inkscape:connector-curvature="0"
             sodipodi:nodetypes="ssssssssssssssssssssssssssssssssssscscccsssssszsscssccsssscscssssscc" />
          <path
             sodipodi:nodetypes="csssssssssssssssssssssssssssssssccc"
             inkscape:connector-curvature="0"
             id="path3493"
             d="m 116.13942,595.47294 c 0.70001,0.34111 1.6608,1.41008 1.81098,1.83533 0.15017,0.42526 0.5498,1.09765 0.88805,1.4942 0.33825,0.39656 0.67926,1.14212 0.75781,1.65681 0.0785,0.5147 0.60606,1.52473 1.17225,2.24453 0.67384,0.85665 1.03513,1.96896 1.04591,3.22006 0.009,1.05123 0.31515,2.43385 0.68023,3.07249 0.92892,1.62497 0.85029,3.69034 -0.20646,5.42343 -0.74893,1.22826 -0.81304,1.70505 -0.38258,2.84545 0.3939,1.04356 0.37392,1.71563 -0.0839,2.82079 -0.33053,0.79796 -0.78461,1.45084 -1.00907,1.45084 -0.22446,0 -0.40812,0.4284 -0.40812,0.95199 0,2.22214 -2.27292,4.62157 -4.3779,4.62157 -0.34018,0 -0.8823,0.63688 -1.20473,1.4153 -0.62377,1.50592 -2.79027,2.921 -4.08616,2.66895 -0.45659,-0.0888 -1.16793,0.41578 -1.71056,1.21341 -1.84136,2.70665 -5.59009,2.57036 -6.8337,-0.24845 -0.50405,-1.14246 -0.79257,-1.31209 -1.84109,-1.08245 -1.827753,0.40032 -3.926009,-0.87076 -4.624046,-2.80115 -0.364056,-1.00677 -0.89608,-1.63007 -1.391356,-1.63007 -1.05678,0 -2.727185,-2.16199 -2.727185,-3.52978 0,-0.59519 -0.396034,-1.29413 -0.880075,-1.55318 -1.221293,-0.65361 -1.981777,-3.01946 -1.43384,-4.46065 0.33452,-0.87985 0.22205,-1.50049 -0.480831,-2.65328 -1.038072,-1.70256 -1.16408,-3.39418 -0.395259,-5.30637 0.289133,-0.71913 0.484352,-2.16337 0.433814,-3.20942 -0.07007,-1.45032 0.191099,-2.23822 1.099919,-3.31829 0.655497,-0.77902 1.191808,-1.83089 1.191808,-2.33751 0,-0.50662 0.313513,-1.18131 0.696695,-1.49933 0.383183,-0.31801 0.696696,-0.86131 0.696696,-1.20732 0,-0.7457 2.109295,-2.2304 2.673391,-1.88177 0.215562,0.13322 0.618823,-0.12109 0.896135,-0.56514 0.432592,-0.6927 6.650454,-1.27243 8.105894,-1.44241 1.5895,-0.13254 1.75737,-0.31246 3.73047,-0.13858 0.78677,0.28767 5.43355,0.707 8.19681,1.93 z"
             style="fill:#000000" />
        </g>
      </g>
      <path
         sodipodi:nodetypes="ssssssssssccscs"
         inkscape:connector-curvature="0"
         id="path3495"
         d="m 188.32915,443.96861 c -0.28665,-0.0987 -1.1618,-0.32057 -1.94479,-0.49311 -2.3295,-0.5133 -4.94115,-3.22564 -6.10749,-6.34293 -1.24012,-3.31452 -1.40792,-8.28921 -0.36389,-10.78793 0.93069,-2.22745 3.99801,-4.86597 6.44758,-5.54622 2.83964,-0.78858 8.7487,-0.28212 12.30767,0.22924 6.62859,0.9524 9.65425,0.99845 17.80343,-0.0104 7.34545,-0.90935 13.33734,-0.60427 16.05725,2.9617 3.61533,4.73994 2.48608,13.8328 -2.2085,17.78302 -1.97406,1.66108 -6.0617,2.59997 -8.39992,1.92937 -5.3263,-1.52756 -11.51359,-9.24748 -12.39691,-15.4677 -1.95327,-3.82896 -4.35791,-3.79014 -5.19527,0.26391 -1.03628,5.01716 -6.19314,11.95157 -10.52702,14.15563 -1.92539,0.97919 -4.5977,1.62646 -5.47214,1.32544 z"
         style="fill:#000000;fill-opacity:1"
         inkscape:export-filename="/home/n3k00n3/Downloads/raulhcpreto.png"
         inkscape:export-xdpi="90"
         inkscape:export-ydpi="90" />
      <path
         inkscape:export-ydpi="90"
         inkscape:export-xdpi="90"
         inkscape:export-filename="/home/n3k00n3/Downloads/raulhcpreto.png"
         transform="matrix(0.12339401,0,0,0.12339401,66.785578,363.51848)"
         d="m 160,369.36218 c 0,38.65994 -31.34007,70 -70,70 -38.659932,0 -70,-31.34006 -70,-70 0,-38.65993 31.340068,-70 70,-70 38.65993,0 70,31.34007 70,70 z"
         sodipodi:ry="70"
         sodipodi:rx="70"
         sodipodi:cy="369.36218"
         sodipodi:cx="90"
         id="path3551"
         style="fill:#ffffff;stroke:none"
         sodipodi:type="arc" />
      <g
         transform="matrix(0.98583,0,0,0.98583,-244.15075,11.650375)"
         id="g3188"
         style="fill:#808000;stroke:none" />
    </g>
  </g>
</svg>
